<svg width="64px" height="64px" viewBox="0 0 24 24" fill="white" xmlns="http://www.w3.org/2000/svg">
  <path d="M12 22C16.4183 22 20 18.4183 20 14C20 10.5677 14.9154 3.96839 12.9977 2.0267C12.4438 1.46913 11.5562 1.46913 11.0023 2.0267C9.08459 3.96839 4 10.5677 4 14C4 18.4183 7.58172 22 12 22Z" fill="#D3D3D3"/>
  <path d="M12 17C10.3431 17 9 15.6569 9 14C9 13.7348 9.10536 13.4804 9.29289 13.2929C9.48043 13.1054 9.73478 13 10 13C10.2652 13 10.5196 13.1054 10.7071 13.2929C10.8946 13.4804 11 13.7348 11 14C11 14.5304 11.2107 15.0391 11.5858 15.4142C11.9609 15.7893 12.4696 16 13 16C13.5304 16 14.0391 15.7893 14.4142 15.4142C14.7893 15.0391 15 14.5304 15 14C15 13.7348 15.1054 13.4804 15.2929 13.2929C15.4804 13.1054 15.7348 13 16 13C16.2652 13 16.5196 13.1054 16.7071 13.2929C16.8946 13.4804 17 13.7348 17 14C17 15.6569 15.6569 17 14 17H12Z" fill="#D3D3D3"/>
</svg>
