<svg width="64px" height="64px" viewBox="0 0 24 24" fill="white" xmlns="http://www.w3.org/2000/svg">
  <path d="M2 12H14C15.1046 12 16 11.1046 16 10C16 8.89543 15.1046 8 14 8C12.8954 8 12 8.89543 12 10H10C10 7.79086 11.7909 6 14 6C16.2091 6 18 7.79086 18 10C18 12.2091 16.2091 14 14 14H2V12ZM2 17H15C16.1046 17 17 16.1046 17 15C17 13.8954 16.1046 13 15 13C13.8954 13 13 13.8954 13 15H11C11 12.7909 12.7909 11 15 11C17.2091 11 19 12.7909 19 15C19 17.2091 17.2091 19 15 19H2V17ZM21 8H10V6H21V8Z" fill="#D3D3D3"/>
</svg>
